PathFileType	3	(X/Y/Z)	/mnt/e/Research/Bio/Osim_support/Data/PSU100/10hz/Subject7/trcs/Take_2_10hz.trc
DataRate	CameraRate	NumFrames	NumMarkers	Units	OrigDataRate	OrigDataStartFrame	OrigNumFrames
50.0	50.0	7	39	mm	50.0	0	16876	
Frame#	Time	LFHD			RFHD			LBHD			RBHD			C7			T10			CLAV			STRN			RBAK			LSHO			LUPA			LELB			LFRM			LWRA			LWRB			LFIN			RSHO			RUPA			RELB			RFRM			RWRA			RWRB			RFIN			LASI			RASI			LPSI			RPSI			LTHI			LKNE			LTIB			LANK			LHEE			LTOE			RTHI			RKNE			RTIB			RANK			RHEE			RTOE	
	X1	Y1	Z1	X2	Y2	Z2	X3	Y3	Z3	X4	Y4	Z4	X5	Y5	Z5	X6	Y6	Z6	X7	Y7	Z7	X8	Y8	Z8	X9	Y9	Z9	X10	Y10	Z10	X11	Y11	Z11	X12	Y12	Z12	X13	Y13	Z13	X14	Y14	Z14	X15	Y15	Z15	X16	Y16	Z16	X17	Y17	Z17	X18	Y18	Z18	X19	Y19	Z19	X20	Y20	Z20	X21	Y21	Z21	X22	Y22	Z22	X23	Y23	Z23	X24	Y24	Z24	X25	Y25	Z25	X26	Y26	Z26	X27	Y27	Z27	X28	Y28	Z28	X29	Y29	Z29	X30	Y30	Z30	X31	Y31	Z31	X32	Y32	Z32	X33	Y33	Z33	X34	Y34	Z34	X35	Y35	Z35	X36	Y36	Z36	X37	Y37	Z37	X38	Y38	Z38	X39	Y39	Z39
1	0.00000	1365.61000	1588.67000	-1003.47000	1454.41000	1591.45000	-1056.90000	1475.45000	1554.97000	-856.18300	1554.41000	1556.89000	-922.18900	1520.94000	1410.27000	-912.09000	1584.44000	1057.23000	-853.33300	1434.37000	1317.03000	-999.95100	1412.03000	1166.27000	-1030.51000	1651.06000	1273.15000	-910.30200	1350.62000	1343.03000	-785.48100	1352.52000	1171.34000	-742.24200	1353.26000	1034.43000	-719.89300	1320.78000	895.63500	-737.14900	1317.67000	798.51700	-844.65500	1318.05000	776.90000	-757.97700	1306.50000	709.14000	-795.86100	1622.54000	1374.33000	-1092.15000	1782.15000	1262.81000	-1089.52000	1865.82000	1195.95000	-1074.60000	1823.90000	1067.08000	-1023.86000	1686.13000	1005.34000	-1021.62000	1736.90000	984.76600	-957.61800	1704.56000	934.28900	-951.53800	1341.50000	901.47700	-895.38500	1533.51000	911.58600	-1086.90000	0.00000	0.00000	-0.00000	0.00000	0.00000	-0.00000	1353.37000	627.54200	-841.49200	1394.60000	456.56500	-812.97400	1418.81000	257.00000	-787.76900	1459.96000	64.77740	-821.95400	1554.84000	11.45750	-792.69800	1378.76000	16.30830	-994.76600	1572.56000	676.43300	-1086.01000	1596.05000	459.58700	-1028.55000	0.00000	0.00000	-0.00000	0.00000	0.00000	-0.00000	1600.14000	12.60710	-841.92800	1429.54000	17.41770	-1047.53000
2	0.02000	1364.86000	1589.00000	-1003.62000	1453.83000	1591.51000	-1056.87000	1473.83000	1554.63000	-856.14100	1553.19000	1556.51000	-921.75600	1519.20000	1410.15000	-911.97000	1583.17000	1057.32000	-853.28000	1432.89000	1316.87000	-1000.19000	1410.88000	1166.08000	-1030.56000	1649.84000	1273.35000	-910.42900	1348.71000	1342.88000	-785.93700	1350.99000	1171.27000	-742.44200	1351.57000	1034.31000	-719.86800	1319.49000	895.59100	-736.68300	1316.49000	798.19400	-844.01100	1316.77000	776.79600	-757.36000	1305.45000	708.95000	-795.10100	1620.94000	1374.32000	-1092.06000	1780.79000	1263.13000	-1089.57000	1864.61000	1196.25000	-1074.59000	1822.34000	1067.77000	-1023.32000	1684.65000	1005.88000	-1021.42000	1734.70000	984.24600	-958.16500	1704.33000	935.38500	-951.82400	1340.49000	901.24200	-895.22100	1532.50000	911.53100	-1086.79000	0.00000	0.00000	-0.00000	0.00000	0.00000	-0.00000	1352.72000	627.35000	-840.92300	1394.66000	456.32200	-812.38600	1418.62000	256.80300	-787.74200	1460.04000	64.63730	-821.73700	1554.84000	11.44650	-792.69700	1378.75000	16.31190	-994.76100	1571.64000	676.42700	-1085.91000	1595.34000	459.59500	-1028.51000	0.00000	0.00000	-0.00000	0.00000	0.00000	-0.00000	1599.36000	13.64580	-841.97400	1429.60000	17.36040	-1047.55000
3	0.04000	1363.14000	1588.75000	-1003.99000	1451.95000	1591.99000	-1057.03000	1471.70000	1554.46000	-856.23300	1551.18000	1556.40000	-921.62900	1517.58000	1410.08000	-912.32000	1581.90000	1057.34000	-853.06600	1431.66000	1316.66000	-1000.10000	1409.65000	1165.86000	-1030.56000	1648.23000	1273.40000	-909.95500	1347.22000	1342.77000	-786.02000	1349.28000	1171.13000	-742.60800	1349.86000	1034.17000	-719.91100	1317.61000	895.48300	-736.73000	1315.03000	798.01200	-843.94200	1314.94000	776.59200	-757.41600	1303.74000	708.68900	-795.39000	1619.63000	1374.24000	-1092.19000	1779.75000	1263.24000	-1089.25000	1863.29000	1196.53000	-1074.14000	1820.41000	1068.29000	-1022.44000	1682.47000	1006.71000	-1020.89000	1733.38000	983.51700	-959.25400	1702.62000	936.16500	-950.79800	1339.42000	901.11400	-894.98000	1531.28000	911.45100	-1086.77000	0.00000	0.00000	-0.00000	0.00000	0.00000	-0.00000	1351.92000	627.24800	-840.57100	1394.33000	456.00600	-811.95300	1418.62000	256.47400	-787.49900	1460.60000	64.14570	-820.96800	1554.84000	11.44360	-792.69500	1378.74000	16.31830	-994.74300	1570.03000	676.34100	-1085.94000	1594.77000	459.21200	-1028.61000	0.00000	0.00000	-0.00000	0.00000	0.00000	-0.00000	1600.51000	11.83150	-842.01600	1429.64000	17.21760	-1047.58000
4	0.06000	1360.85000	1588.17000	-1004.86000	1449.68000	1591.71000	-1057.82000	1469.43000	1554.41000	-856.95700	1549.04000	1556.60000	-922.30800	1515.90000	1410.04000	-912.73700	1580.74000	1057.44000	-853.22700	1430.12000	1316.34000	-1000.42000	1408.33000	1165.45000	-1030.76000	1646.84000	1273.51000	-910.33400	1345.52000	1342.52000	-786.51100	1347.80000	1170.94000	-742.81600	1348.55000	1034.04000	-720.07600	1316.64000	895.25800	-736.82800	1314.14000	797.93500	-844.04100	1314.12000	776.54900	-757.37700	1302.82000	708.40800	-795.59600	1617.94000	1374.09000	-1092.44000	1778.01000	1263.21000	-1089.47000	1861.89000	1196.95000	-1073.98000	1818.48000	1068.97000	-1021.99000	1680.26000	1007.74000	-1020.61000	1732.50000	983.43900	-960.14400	1701.32000	937.53000	-950.43600	1338.43000	900.96900	-894.62900	1529.86000	911.36500	-1086.84000	0.00000	0.00000	-0.00000	0.00000	0.00000	-0.00000	1351.46000	627.18700	-840.20600	1393.81000	455.88800	-811.52000	1418.56000	256.38900	-787.08600	1460.71000	64.04070	-820.70400	1554.92000	11.47480	-792.66700	1378.74000	16.32570	-994.74300	1568.54000	676.16100	-1086.16000	1594.33000	458.96600	-1028.50000	0.00000	0.00000	-0.00000	1598.86000	53.76720	-941.78800	1600.36000	11.44730	-843.49100	1429.63000	17.11540	-1047.60000
5	0.08000	1358.89000	1587.54000	-1006.32000	1447.97000	1590.68000	-1059.22000	1467.64000	1554.69000	-858.27200	1547.18000	1556.89000	-923.64700	1514.58000	1410.07000	-913.36900	1579.42000	1057.39000	-853.69800	1428.87000	1316.09000	-1000.98000	1407.00000	1165.19000	-1031.12000	1645.93000	1273.62000	-911.12200	1344.44000	1342.66000	-786.94400	1346.86000	1171.00000	-743.20900	1347.71000	1034.23000	-720.28000	1315.69000	895.38200	-736.87200	1313.35000	798.08800	-843.94600	1313.53000	776.74000	-757.11200	1302.45000	708.35900	-795.31700	1616.45000	1373.73000	-1093.14000	1776.97000	1263.13000	-1090.36000	1860.69000	1196.57000	-1075.20000	1816.58000	1069.04000	-1022.34000	1678.36000	1008.40000	-1020.90000	1731.80000	982.76400	-961.49200	1700.17000	937.96700	-950.00500	1337.15000	900.74200	-894.74300	1528.35000	911.21900	-1087.26000	0.00000	0.00000	-0.00000	0.00000	0.00000	-0.00000	1350.88000	627.10500	-839.98800	1393.37000	455.92900	-811.30400	1418.36000	256.37000	-787.00800	1460.68000	64.04780	-820.66800	1554.84000	11.45180	-792.72900	1378.74000	16.31380	-994.75300	1567.19000	676.09300	-1086.58000	1593.56000	459.09300	-1028.76000	0.00000	0.00000	-0.00000	1598.86000	53.92620	-941.78900	1600.24000	11.80240	-843.30700	1429.59000	17.07540	-1047.58000
6	0.10000	1357.93000	1587.26000	-1008.05000	1447.37000	1589.48000	-1060.84000	1466.71000	1554.98000	-859.89000	1546.31000	1556.91000	-925.30900	1513.79000	1410.09000	-914.74400	1578.34000	1057.49000	-854.51100	1427.55000	1315.88000	-1001.97000	1405.91000	1165.00000	-1031.66000	1645.17000	1273.55000	-912.25100	1343.43000	1342.70000	-787.91000	1345.90000	1171.18000	-743.90000	1346.76000	1034.42000	-720.73400	1314.64000	895.67600	-737.17300	1311.87000	798.14600	-844.15700	1312.16000	776.91300	-757.45300	1301.72000	708.58300	-795.25500	1615.49000	1373.04000	-1094.45000	1775.85000	1262.36000	-1092.12000	1859.50000	1195.59000	-1077.27000	1814.57000	1068.77000	-1022.33000	1676.44000	1008.74000	-1021.18000	1731.47000	982.14800	-962.80000	1700.11000	939.14300	-949.93200	1335.81000	900.59500	-895.22000	1526.76000	911.06900	-1087.97000	0.00000	0.00000	-0.00000	0.00000	0.00000	-0.00000	1350.06000	627.02200	-840.19200	1392.65000	456.04100	-811.42300	1418.11000	256.33000	-787.16700	1460.64000	64.04780	-820.72000	1554.88000	11.50150	-792.73000	1378.74000	16.27320	-994.76000	1565.86000	675.97000	-1087.13000	1591.90000	459.15800	-1029.45000	0.00000	0.00000	-0.00000	1598.52000	54.11510	-941.96500	1599.96000	12.31050	-843.24100	1429.58000	17.02300	-1047.60000
7	0.12000	1357.47000	1587.33000	-1009.62000	1446.77000	1590.13000	-1062.38000	1466.24000	1554.97000	-861.21700	1545.84000	1556.57000	-926.63900	1513.00000	1410.03000	-916.07300	1577.29000	1057.49000	-855.57700	1426.69000	1315.68000	-1002.96000	1405.05000	1164.69000	-1032.34000	1644.44000	1273.43000	-913.61100	1342.75000	1342.76000	-788.95700	1345.07000	1171.24000	-744.92300	1345.80000	1034.50000	-721.67800	1313.42000	895.80800	-737.95500	1310.51000	798.17200	-844.88400	1311.09000	777.17900	-757.99100	1300.51000	708.62100	-796.05400	1614.47000	1372.25000	-1096.05000	1774.59000	1261.05000	-1093.64000	1858.20000	1194.24000	-1078.83000	1812.05000	1068.07000	-1022.54000	1673.78000	1008.93000	-1021.72000	1730.47000	980.97100	-964.21900	1699.27000	939.33500	-949.60900	1334.68000	900.53000	-895.67700	1525.11000	910.93400	-1088.80000	0.00000	0.00000	-0.00000	0.00000	0.00000	-0.00000	1348.95000	627.34100	-841.17500	1392.45000	455.92200	-811.66200	1417.79000	256.39200	-787.18400	1460.60000	64.07550	-820.69300	1554.88000	11.54250	-792.73900	1378.72000	16.25850	-994.80100	1564.37000	675.82400	-1087.86000	1590.61000	459.18900	-1030.02000	0.00000	0.00000	-0.00000	1598.10000	54.24790	-942.13200	1599.57000	12.72760	-843.12700	1429.61000	16.97230	-1047.62000
